<svg xmlns="http://www.w3.org/2000/svg" fill="none" viewBox="0 0 173 57"><path fill="#000" d="M6.63313 37.274c-2.024-1.032-3.69152-2.6479-4.78657-4.6385C.617622 30.5138.00210075 27.8164 0 24.5434c0-2.752.591364-5.1405 1.77409-7.1657 1.10927-1.9533 2.74774-3.5535 4.72669-4.6164 2.00682-1.0573 4.24522-1.5988 6.51342-1.5755 3.2057 0 5.546.5997 7.0207 1.7993.7099.5585 1.2792 1.2755 1.6622 2.0936.383.818.5692 1.7144.5436 2.6173.0083 1.2065-.356 2.3862-1.043 3.378-.7011 1.0236-1.573 1.919-2.5777 2.647-1.0188.7478-2.3381 1.6228-3.9578 2.6249-1.5965.9146-3.1086 1.9692-4.5187 3.1511-.97056.876-1.45689 1.8802-1.45899 3.0125h-.76257c-.032-1.0075.30406-1.9922.94534-2.7699.91992-1.0049 1.93752-1.9158 3.03772-2.7194.9829-.7226 1.9235-1.5012 2.8171-2.3318.7568-.7418 1.3737-1.6139 1.8213-2.5745.522-1.1254.7796-2.3552.7532-3.5954-.0142-.9814-.203-1.9524-.5578-2.8676-.3683-.9994-.9777-1.8923-1.7741-2.5997-.8278-.7355-1.9056-1.1267-3.0125-1.0934-2.23517 0-3.95148 1.1018-5.14891 3.3055s-1.79719 5.296-1.79929 9.277q0 7.0491 2.5209 10.2537c1.6806 2.1365 3.7866 3.2047 6.318 3.2047 1.3872-.0047 2.7587-.2932 4.0303-.8476 1.2491-.5128 2.3875-1.2617 3.3528-2.2058l.4884.9705c-1.1655.9252-2.4925 1.6261-3.9137 2.0672-1.5631.5003-3.1958.7492-4.837.7374-2.1941.0185-4.36217-.4768-6.33057-1.4464M29.5891 38.5001l-2.6217-.2647c-1.1344-.1323-1.8308-.2111-2.0892-.2457l.4853-3.8854c1.5999 1.1377 3.3281 2.0832 5.1489 2.8171 1.5376.6601 3.1864 1.0225 4.859 1.0683 1.458 0 2.6134-.4044 3.4663-1.2132s1.2825-2.0882 1.2888-3.8381c.0063-.9857-.3376-1.9417-.9706-2.6974-.6797-.8194-1.4938-1.5174-2.4074-2.064-.9559-.584-2.2426-1.2804-3.8602-2.0892-1.7835-.9075-3.1847-1.6848-4.2036-2.3318-.9972-.6276-1.8841-1.4155-2.6249-2.3318-.7215-.8903-1.1084-2.0053-1.0934-3.1512-.0459-1.399.3547-2.7764 1.1439-3.9326.7385-1.0528 1.7569-1.878 2.94-2.3822 1.2121-.5209 2.5187-.7859 3.838-.7784 1.8722.0101 3.6766.7012 5.0765 1.9443 1.5918 1.3598 2.9677 2.9536 4.0807 4.7267 1.1828 1.8465 2.5997 4.3401 4.2509 7.4808 1.4894 2.8171 2.7615 5.068 3.816 6.7528.9584 1.5754 2.1445 3.0005 3.5198 4.2289 1.2962 1.1344 2.689 1.7005 4.1784 1.6984 1.4895-.0021 2.5672-.2846 3.2331-.8476.6953-.5672 1.043-1.5472 1.043-2.94-.0003-1.1344-.3759-2.2368-1.0682-3.1354-.7309-.9731-1.6179-1.8186-2.6249-2.502q-1.5567-1.0683-4.128-2.5209c-1.7835-1.0336-3.1763-1.9075-4.1784-2.6218-.981-.6888-1.8494-1.5253-2.5745-2.4799-.7008-.9003-1.0782-2.0102-1.0713-3.1511q0-3.44745 2.94-5.0418 2.94-1.5945 7.506-1.5756c2.7604-.0114 5.5088.3652 8.1645 1.1187l-1.5976 3.8475c-1.1593-1.1514-2.4759-2.1328-3.9105-2.9148-1.4655-.8662-3.1318-1.3343-4.8339-1.3582-1.1692-.0314-2.3127.3464-3.233 1.0683-.4137.3007-.7504.6949-.9826 1.1506-.2322.4556-.3533.9597-.3535 1.4711 0 1.2983.5829 2.4295 1.7489 3.4032 1.6631 1.2995 3.4354 2.4529 5.297 3.4474 1.5948.8748 3.1431 1.8319 4.6385 2.8675 1.1619.823 2.1798 1.8323 3.0125 2.9873.8186 1.1206 1.254 2.4755 1.2415 3.8633 0 2.2352-.729 3.8874-2.1869 4.9567-1.4804 1.0761-3.2718 1.6393-5.1017 1.6039-1.956.0121-3.8534-.6676-5.3569-1.919-1.6271-1.3235-3.0232-2.908-4.1311-4.6889-1.1659-1.8466-2.5587-4.3244-4.1784-7.4335-1.4558-2.8192-2.7163-5.0786-3.7814-6.7781-.9669-1.5949-2.178-3.0282-3.5891-4.2477-1.246-1.1058-2.8528-1.7188-4.5187-1.7237-1.1975-.0138-2.3514.4487-3.2079 1.2857-.4182.3588-.7557.802-.9903 1.3006s-.361 1.0412-.371 1.5921c-.007.9226.33 1.8146.9454 2.502.664.7562 1.4423 1.4037 2.3066 1.919.9075.5525 2.1869 1.2489 3.8381 2.0892 1.8465.9391 3.3171 1.7489 4.4116 2.4296 1.0639.6618 2.0079 1.4993 2.7919 2.4767.7747.962 1.1873 2.1652 1.1659 3.4001q0 4.41165-2.8644 6.1227t-7.5312 1.7016c-1.3834-.0071-2.7654-.0859-4.1406-.2364M75.9642 37.274c-2.024-1.032-3.6915-2.6479-4.7866-4.6385-1.2289-2.1217-1.8444-4.8191-1.8465-8.0921 0-2.752.5913-5.1405 1.774-7.1657 1.1093-1.9533 2.7478-3.5535 4.7267-4.6164 2.0069-1.0573 4.2452-1.5988 6.5134-1.5755 3.2058 0 5.546.5997 7.0207 1.7993.7099.5585 1.2792 1.2755 1.6622 2.0936.3831.818.5692 1.7144.5436 2.6173.0083 1.2065-.3559 2.3862-1.043 3.378-.7011 1.0236-1.573 1.919-2.5776 2.647-1.0189.7478-2.3382 1.6228-3.9578 2.6249-1.5965.9146-3.1087 1.9692-4.5188 3.1511-.9705.876-1.4568 1.8802-1.4589 3.0125h-.7689c-.032-1.0075.3041-1.9922.9453-2.7699.92-1.0049 1.9375-1.9158 3.0377-2.7194.983-.7226 1.9236-1.5012 2.8171-2.3318.7568-.7418 1.3738-1.6139 1.8214-2.5745.5219-1.1254.7796-2.3552.7531-3.5954-.0141-.9814-.203-1.9524-.5577-2.8676-.3684-.9994-.9778-1.8923-1.7741-2.5997-.8279-.7355-1.9056-1.1267-3.0125-1.0934-2.2331 0-3.9494 1.1018-5.149 3.3055-1.1995 2.2037-1.7982 5.296-1.7961 9.277q0 7.0491 2.5209 10.2537c1.6806 2.1365 3.7866 3.2047 6.318 3.2047 1.3872-.0047 2.7587-.2932 4.0303-.8476 1.2491-.5128 2.3875-1.2617 3.3528-2.2058l.4884.9705c-1.1655.9252-2.4925 1.6261-3.9137 2.0672-1.5612.5053-3.1928.7595-4.8338.7531-2.1954.0137-4.3635-.4871-6.3306-1.4621M94.4519 37.9043c.3214-.4202.5556-1.5378.7027-3.3529.1471-1.815.2206-3.9042.2206-6.2675v-6.9577c0-2.3634-.0735-4.4526-.2206-6.2676-.1471-1.8151-.3813-2.9327-.7027-3.3528v-.0977h5.8771v7.7265h.097c.713-2.6238 1.992-4.6563 3.839-6.0974 1.846-1.4411 3.822-2.1627 5.927-2.1648 1.323-.0073 2.626.3282 3.781.9737 1.2.6842 2.172 1.7067 2.795 2.94.729 1.4665 1.087 3.0895 1.043 4.7267v8.5521c0 2.3634.073 4.4526.218 6.2676.145 1.8151.383 2.939.715 3.3718v.0945h-6.803v-.0945c.323-.4202.558-1.5462.706-3.3781.147-1.8318.203-3.9126.17-6.2423v-8.5617c0-2.4936-.413-4.1941-1.239-5.1017-.825-.9075-1.951-1.3612-3.378-1.3612-1.326.0203-2.614.4447-3.693 1.2163-1.197.8109-2.193 2.0493-2.987 3.7152s-1.191 3.7204-1.191 6.1636v3.9358c0 2.3633.073 4.4525.22 6.2676.147 1.815.382 2.9305.703 3.3465v.0945h-6.8001zM135.798 12.3803q-2.868 0-4.761 1.2384c-1.263.8256-1.893 2.5661-1.891 5.2215v15.0151c0 1.2604.268 2.1911.803 2.7919.536.6008 1.419.9012 2.647.9012.586-.0034 1.171-.0529 1.749-.1481v.7783c-1.161.377-2.374.5736-3.595.583-1.943 0-3.519-.5504-4.727-1.6512q-1.812-1.6512-1.824-4.9977V12.3362h-1.261v-.7279c1.312-1.0522 2.509-2.24054 3.57-3.54502.939-1.28714 1.668-2.71429 2.162-4.22881h.485V14.8634c.54-1.1935 1.527-2.1272 2.748-2.5997 1.254-.4499 2.579-.6719 3.911-.6554zM138.905 37.9045c.326-.4201.561-1.5377.706-3.3528.145-1.815.217-3.9042.217-6.2676v-6.9577c0-2.3633-.072-4.4525-.217-6.2676-.145-1.815-.38-2.9326-.706-3.3528v-.0977h5.88v16.6664c0 2.3633.074 4.4525.221 6.2675.147 1.8151.381 2.9359.702 3.3623v.0945h-6.803zm1.216-33.89039c-.244-.20552-.44-.46215-.575-.7518-.134-.28965-.204-.60526-.203-.92461.003-.3114.075-.61834.209-.89924s.329-.528954.569-.726741c.615-.502171 1.395-.7542284 2.187-.70584973.776-.04397137 1.54.20831473 2.137.70584973.24.198355.434.446521.568.727291.134.28078.206.58744.21.89869-.001.3191-.071.63423-.205.92366-.134.28942-.33.54625-.573.75275-.597.49753-1.361.74982-2.137.70585-.793.04574-1.574-.20974-2.187-.71531zM151.806 36.9216c-1.471-1.229-2.224-2.9453-2.26-5.149.038-1.8632.495-3.6941 1.336-5.3569 1.144-2.3065 2.406-4.5521 3.782-6.7277 1.035-1.6533 1.771-2.9011 2.206-3.7435.377-.6365.602-1.3514.658-2.0892.36-.017.719.039 1.057.1646.337.1257.645.3184.906.5665.5.5041.751 1.2573.753 2.2593-.042.6059-.216 1.1953-.51 1.7268-.34.6954-.729 1.4307-1.166 2.2058-.438.7784-.722 1.2951-.851 1.5567-1.295 2.1852-2.474 4.4371-3.532 6.7466-.811 1.7273-1.25 3.6064-1.286 5.5144-.014.4987.097.9929.321 1.4384s.556.8283.965 1.1141c.93.6521 2.047.9839 3.182.9453 1.416-.0132 2.813-.3279 4.097-.9233 1.342-.5876 2.518-1.4967 3.425-2.6469.898-1.1232 1.38-2.523 1.362-3.961V22.105q0-10.3515-4.86-10.3515c-1.747 0-3.983 1.021-6.705 3.0629l-.867-2.4358c2.719-.8403 5.116-1.2605 7.191-1.2605 3.595 0 6.193 1.1502 7.796 3.4505s2.405 5.3286 2.408 9.0847v4.6164c0 2.3634.072 4.4526.217 6.2676.145 1.8151.381 2.9369.709 3.3654v.0946h-5.782v-4.2352h-.145c-.933 1.5801-2.288 2.868-3.914 3.7184-1.561.8383-3.304 1.2798-5.076 1.2856-2.137 0-3.943-.6155-5.417-1.8465M36.364 48.5459v8.2434h-1.0934v-7.0901l-2.5776 7.0901h-1.3676l-2.5777-7.0901v7.0901h-1.0934v-8.2434h1.6953l2.6501 7.1814 2.6501-7.1814zM46.1137 56.7893h-1.2605l-2.9684-7.3485-2.9652 7.3485h-1.2604l3.4253-8.2434H42.66zm-1.6386-3.0157v.9202H39.345v-.9202zM52.2237 53.0298c.1872.1936.3328.4235.4276.6755.0949.2521.137.5209.1239.7898.0057.4462-.1191.8843-.3592 1.2605-.2485.3756-.5996.672-1.0116.8539-.4767.2076-.9926.3098-1.5125.2994-.7474.0388-1.4823-.2028-2.0608-.6775-.2526-.2235-.4578-.4954-.6034-.7996s-.2287-.6345-.2443-.9713H48.08c.0095.2108.0626.4173.1559.6066.0933.1892.2247.3571.3861.4931.3761.289.8436.4332 1.3172.4065.4532.0195.899-.1198 1.2604-.3939.1579-.1229.2842-.2816.3686-.4629.0844-.1814.1244-.3802.1167-.5801.0049-.1552-.0248-.3095-.087-.4517-.0621-.1423-.1551-.2689-.2722-.3708-.3335-.2572-.7235-.4311-1.1376-.5073l-.7878-.1985c-.6429-.1261-1.2428-.4147-1.7426-.8382-.1842-.1868-.3275-.4099-.4208-.6551-.0933-.2453-.1346-.5072-.1211-.7692-.0115-.4322.1086-.8577.3444-1.2201.2357-.3624.5761-.6446.9759-.8093.4557-.1992.949-.2981 1.4463-.2899.4953-.0112.986.0969 1.4307.3152.3875.1895.7148.4829.9453.8476.2217.3619.3545.7712.3876 1.1943h-1.1061c-.0419-.3911-.2257-.7532-.5168-1.0178-.3207-.2725-.7328-.4132-1.1533-.3939-.4294-.0203-.8525.1089-1.1974.3655-.1459.1138-.2627.2605-.341.428-.0784.1676-.1159.3514-.1096.5363-.0084.1501.0153.3003.0697.4405.0543.1402.138.2672.2454.3725.3107.2468.6796.4096 1.0714.4726l.8256.1985c.6622.1176 1.2806.4115 1.7898.8508M59.3704 53.0299c.1841.1923.3273.4198.421.669.0937.2491.136.5146.1242.7805.0057.4462-.1192.8844-.3593 1.2605-.2484.3757-.5995.6721-1.0115.8539-.4767.2077-.9927.3098-1.5125.2994-.7474.0389-1.4823-.2028-2.0609-.6775-.2525-.2235-.4577-.4954-.6033-.7995-.1456-.3042-.2287-.6345-.2443-.9714h1.0966c.0095.2105.0622.4167.1549.6059s.2234.3573.3839.4938c.3773.2892.8458.4335 1.3203.4065.4532.0195.899-.1198 1.2605-.3939.1561-.1242.281-.2832.3647-.4643s.1239-.3793.1174-.5787c.0049-.1548-.0246-.3088-.0861-.451-.0616-.1422-.1537-.269-.27-.3714-.3337-.2567-.7236-.4306-1.1375-.5074l-.7878-.1985c-.6429-.1261-1.2428-.4146-1.7426-.8382-.1842-.1868-.3275-.4099-.4208-.6551s-.1346-.5072-.1212-.7692c-.0108-.4317.1092-.8565.3443-1.2187.235-.3622.5742-.6448.9729-.8106.4567-.1998.9511-.2987 1.4495-.2899.4952-.0109.9858.0972 1.4306.3151.3876.1895.7149.483.9454.8476.2216.3619.3545.7712.3876 1.1943h-1.0998c-.0433-.3907-.2269-.7523-.5168-1.0178-.3219-.2726-.735-.4134-1.1564-.3939-.4285-.0203-.8506.1089-1.1943.3655-.1463.1136-.2636.2602-.3425.4278-.0788.1675-.117.3514-.1113.5365-.0064.1513.0199.3022.077.4425.057.1403.1436.2666.2539.3705.3107.2468.6796.4096 1.0714.4726l.8224.1986c.6599.1255 1.2745.4247 1.7804.8665M69.2335 56.7893h-1.2604l-2.9652-7.3485-2.9684 7.3485h-1.2604l3.4284-8.2434h1.5755zm-1.648-3.0157v.9202h-5.1206v-.9202zM74.5084 52.5855h3.9798v.2237c.0153.7477-.165 1.4863-.5231 2.1428-.3415.6118-.8525 1.1119-1.4715 1.4401-.673.3525-1.4242.5292-2.1838.5136-.7956.0158-1.5828-.1661-2.2908-.5294-.6467-.3378-1.1818-.8554-1.5409-1.4905-.3602-.6839-.5484-1.4453-.5484-2.2184 0-.773.1882-1.5344.5484-2.2184.3591-.635.8942-1.1527 1.5409-1.4904.708-.3634 1.4952-.5453 2.2908-.5294.6707-.0109 1.3369.1112 1.96.3592.5508.2207 1.0381.5747 1.418 1.0304.3691.449.6204.983.7311 1.5535h-1.1186c-.1571-.5977-.5283-1.1169-1.0431-1.4589-.5782-.376-1.258-.5652-1.9474-.542-.5995-.0136-1.1923.1286-1.7205.4128-.4885.2668-.8891.6696-1.1533 1.1596-.2712.5341-.4126 1.1246-.4126 1.7236 0 .5991.1414 1.1896.4126 1.7237.2642.49.6648.8928 1.1533 1.1596.5282.2841 1.121.4264 1.7205.4128.5633.0128 1.1217-.1081 1.6292-.3529.4477-.2181.8222-.5619 1.0777-.9895.2584-.4466.3892-.9556.3781-1.4715l.2804.3308h-3.1668zM85.0805 48.5459v.9453h-4.2604l.5294-.5294v7.4178l-.5294-.5294h4.2604v.9454h-4.8276v-8.2497zm0 3.5923v.9453h-4.2383v-.9453zM96.018 48.5459v.9453h-6.7214v-.9453zm-2.814.4727v7.7707h-1.0934v-7.7707zM97.4548 48.5459h1.0935v8.2434h-1.0935zm.9076 3.5923h5.3566v.9453h-5.3598zm5.1776-3.5923h1.096v8.2434h-1.096zM111.698 48.5459v.9453h-4.26l.529-.5294v7.4178l-.529-.5294h4.26v.9454h-4.831v-8.2497zm0 3.5923v.9453h-4.238v-.9453zM118.098 52.2485c.158-.1488.285-.3285.371-.5279.086-.1995.131-.4144.131-.6317s-.045-.4323-.131-.6318c-.086-.1994-.213-.379-.371-.5279-.371-.3065-.843-.4638-1.323-.4411h-1.967v7.3012h-1.096v-8.2434h3.063c.525-.0087 1.046.0989 1.525.3151.423.1894.782.4998 1.03.8923.247.3925.374.8495.363 1.3135.008.4282-.108.8498-.335 1.2132-.226.3554-.545.642-.923.8287-.417.2059-.877.3086-1.342.2994h-.107l-.237.2017h-2.13v-.9202h2.156c.48.0242.953-.1332 1.323-.4411m2.442 4.5408h-1.26l-1.532-2.5556c-.115-.2028-.284-.3697-.488-.4821-.23-.1039-.482-.1525-.734-.1418l.409-.6019c.375-.0195.751.0373 1.103.167.281.1498.513.3788.665.6586zM129.382 56.7893h-1.26l-2.965-7.3485-2.969 7.3485h-1.26l3.425-8.2434h1.576zm-1.648-3.0157v.9202h-5.111v-.9202zM134.849 52.431c.322-.331.501-.7741.501-1.2352 0-.4612-.179-.9042-.501-1.2353-.361-.3261-.837-.496-1.323-.4726h-1.73v7.3011h-1.097v-8.2433h2.836c.53-.0112 1.054.1022 1.532.3308.423.2056.779.5282 1.024.9296.239.4243.364.9029.364 1.3897 0 .4867-.125.9653-.364 1.3896-.243.4072-.599.7355-1.024.9454-.479.2232-1.003.3311-1.532.3151h-1.919v-.9454h1.919c.483.0218.955-.1468 1.314-.4695M141.438 52.7147h-1.096l-3.047-4.1815h1.399l2.206 3.2394 2.205-3.2394h1.387zm0 0v4.0619h-1.096v-4.0619z"/></svg>