<svg xmlns="http://www.w3.org/2000/svg" viewBox="0 0 800 800">
  <defs />
  <path
    d="M147.91 428a36 36 0 0 1-15.19-14.72q-5.85-10.1-5.86-25.68 0-13.1 5.63-22.74a37.84 37.84 0 0 1 15-14.65 43.39 43.39 0 0 1 20.67-5q15.26 0 22.28 5.71a18.36 18.36 0 0 1 7 14.95 18.6 18.6 0 0 1-3.31 10.72 34.33 34.33 0 0 1-8.18 8.4q-4.85 3.56-12.56 8.33a98.72 98.72 0 0 0-14.34 10q-4.62 4.17-4.63 9.56H152a13.16 13.16 0 0 1 3-8.79 65.22 65.22 0 0 1 9.64-8.63 101 101 0 0 0 8.94-7.4 28 28 0 0 0 5.78-8.17 25.81 25.81 0 0 0 2.39-11.41 26.22 26.22 0 0 0-1.77-9.1 20.53 20.53 0 0 0-5.63-8.25 13.77 13.77 0 0 0-9.56-3.47q-10.64 0-16.34 10.49t-5.71 29.44q0 22.37 8 32.54t20.05 10.17a32.28 32.28 0 0 0 12.79-2.69 33.31 33.31 0 0 0 10.64-7l1.55 3.08a38.18 38.18 0 0 1-12.42 6.56 49.19 49.19 0 0 1-15.35 2.34 44.61 44.61 0 0 1-20.09-4.59ZM220.76 431.89l-8.32-.84c-3.6-.42-5.81-.67-6.63-.78l1.54-12.33a79.46 79.46 0 0 0 16.34 8.94 42 42 0 0 0 15.42 3.39q6.94 0 11-3.85t4.09-12.18a13.2 13.2 0 0 0-3.08-8.56 29.81 29.81 0 0 0-7.64-6.55q-4.55-2.78-12.25-6.63-8.49-4.32-13.34-7.4a34 34 0 0 1-8.33-7.4 15.56 15.56 0 0 1-3.47-10 20.92 20.92 0 0 1 3.63-12.48 21.87 21.87 0 0 1 9.33-7.56 30.41 30.41 0 0 1 12.18-2.47 24.46 24.46 0 0 1 16.11 6.17 65.6 65.6 0 0 1 12.95 15q5.63 8.79 13.49 23.74 7.09 13.41 12.11 21.43a59.36 59.36 0 0 0 11.17 13.42q6.17 5.4 13.26 5.39t10.26-2.69q3.31-2.7 3.31-9.33a16.31 16.31 0 0 0-3.39-9.95 35 35 0 0 0-8.33-7.94q-4.94-3.39-13.1-8-8.49-4.92-13.26-8.32a36.85 36.85 0 0 1-8.17-7.87 16.12 16.12 0 0 1-3.4-10q0-10.94 9.33-16t23.82-5a93.51 93.51 0 0 1 25.91 3.55L328.23 361a54.9 54.9 0 0 0-12.41-9.25 31 31 0 0 0-15.34-4.31 15.93 15.93 0 0 0-10.26 3.39 10.29 10.29 0 0 0-4.24 8.32c0 4.12 1.85 7.71 5.55 10.8a116.36 116.36 0 0 0 16.81 10.94 166.5 166.5 0 0 1 14.72 9.1 41 41 0 0 1 9.56 9.48 20.47 20.47 0 0 1 3.94 12.26q0 10.64-6.94 15.73a26.66 26.66 0 0 1-16.19 5.09 26.32 26.32 0 0 1-17-6.09 60.11 60.11 0 0 1-13.11-14.88q-5.55-8.79-13.26-23.59-6.93-13.42-12-21.51A56.59 56.59 0 0 0 246.67 353a21.7 21.7 0 0 0-14.34-5.47 14.33 14.33 0 0 0-10.18 4.08 12.39 12.39 0 0 0-4.32 9.18 11.77 11.77 0 0 0 3 7.94 30.59 30.59 0 0 0 7.32 6.09q4.32 2.63 12.18 6.63 8.79 4.47 14 7.71a35.18 35.18 0 0 1 8.86 7.86 16.74 16.74 0 0 1 3.7 10.79q0 14-9.09 19.43t-23.9 5.4a126.78 126.78 0 0 1-13.14-.75ZM367.93 428a36 36 0 0 1-15.19-14.72q-5.85-10.1-5.86-25.68 0-13.1 5.63-22.74a37.84 37.84 0 0 1 15-14.65 43.39 43.39 0 0 1 20.67-5q15.26 0 22.28 5.71a18.36 18.36 0 0 1 7 14.95 18.6 18.6 0 0 1-3.31 10.72 34.33 34.33 0 0 1-8.18 8.4q-4.85 3.56-12.56 8.33a98.72 98.72 0 0 0-14.34 10q-4.62 4.17-4.63 9.56H372a13.16 13.16 0 0 1 3-8.79 65.22 65.22 0 0 1 9.64-8.63 101 101 0 0 0 8.94-7.4 28 28 0 0 0 5.78-8.17 25.81 25.81 0 0 0 2.39-11.41 26.22 26.22 0 0 0-1.77-9.1 20.53 20.53 0 0 0-5.63-8.25 13.77 13.77 0 0 0-9.56-3.47q-10.63 0-16.34 10.49t-5.7 29.44q0 22.37 8 32.54t20.05 10.17a32.28 32.28 0 0 0 12.79-2.69 33.31 33.31 0 0 0 10.64-7l1.55 3.08a38.18 38.18 0 0 1-12.42 6.56 49.19 49.19 0 0 1-15.34 2.39 44.61 44.61 0 0 1-20.09-4.64ZM426.6 430q1.53-2 2.23-10.64t.7-19.89v-22.08q0-11.25-.7-19.89t-2.23-10.64v-.31h18.65v24.52h.31q3.39-12.49 12.18-19.35t18.81-6.87a24.33 24.33 0 0 1 12 3.09 22.32 22.32 0 0 1 8.87 9.33 31.77 31.77 0 0 1 3.31 15v27.14q0 11.25.69 19.89t2.27 10.7v.3H482.1v-.3q1.54-2 2.24-10.72t.54-19.81V372.3q0-11.87-3.93-16.19t-10.72-4.32a20.69 20.69 0 0 0-11.72 3.86q-5.7 3.86-9.48 11.79T445.25 387v12.49q0 11.25.7 19.89t2.23 10.62v.3H426.6ZM557.81 349q-9.1 0-15.11 3.93t-6 16.57v47.65q0 6 2.55 8.86t8.4 2.86a35.43 35.43 0 0 0 5.55-.47v2.47a37.92 37.92 0 0 1-11.41 1.85q-9.25 0-15-5.24T521 411.62v-62.76h-4v-2.31a75.54 75.54 0 0 0 11.33-11.25 48.06 48.06 0 0 0 6.86-13.42h1.54v35a15.84 15.84 0 0 1 8.72-8.25 35.44 35.44 0 0 1 12.41-2.08ZM567.67 430q1.55-2 2.24-10.64t.69-19.89v-22.08q0-11.25-.69-19.89t-2.24-10.64v-.31h18.66v52.89q0 11.25.7 19.89t2.23 10.67v.3h-21.59Zm3.86-107.55a6.93 6.93 0 0 1-2.47-5.32 6.77 6.77 0 0 1 2.47-5.16 10 10 0 0 1 6.94-2.24 9.73 9.73 0 0 1 6.78 2.24 6.81 6.81 0 0 1 2.47 5.16 7 7 0 0 1-2.47 5.32 9.73 9.73 0 0 1-6.78 2.24 10 10 0 0 1-6.94-2.27ZM608.61 426.88q-7-5.85-7.17-16.34a39.41 39.41 0 0 1 4.24-17 235.76 235.76 0 0 1 12-21.35q4.93-7.87 7-11.88a15.26 15.26 0 0 0 2.09-6.63A8.46 8.46 0 0 1 633 356q2.38 2.4 2.39 7.17a13.23 13.23 0 0 1-1.62 5.48q-1.62 3.31-3.7 7c-1.39 2.47-2.29 4.11-2.7 4.94A229.18 229.18 0 0 0 616.16 402a43.09 43.09 0 0 0-4.08 17.5 9.56 9.56 0 0 0 4.08 8.1 16.61 16.61 0 0 0 10.1 3 31.61 31.61 0 0 0 13-2.93 28.3 28.3 0 0 0 10.87-8.4 19.73 19.73 0 0 0 4.32-12.57v-26.84q0-32.85-15.42-32.85-8.32 0-21.28 9.72L615 349q12.94-4 22.82-4 17.11 0 24.74 10.95t7.64 28.83v14.65q0 11.25.69 19.89t2.25 10.68v.3h-18.35v-13.44h-.46a31.23 31.23 0 0 1-12.42 11.8 34.29 34.29 0 0 1-16.11 4.08q-10.17 0-17.19-5.86ZM242.26 463.77v26.16h-3.47v-22.5l-8.18 22.5h-4.34l-8.18-22.5v22.5h-3.47v-26.16H220l8.41 22.79 8.41-22.79ZM273.2 489.93h-4l-9.42-23.32-9.41 23.32h-4l10.87-26.16h5Zm-5.2-9.57v2.92h-16.28v-2.92ZM292.59 478a6.25 6.25 0 0 1 1.75 4.65 7.26 7.26 0 0 1-1.14 4 7.46 7.46 0 0 1-3.21 2.71 11.45 11.45 0 0 1-4.8.95 9.53 9.53 0 0 1-6.54-2.15 8 8 0 0 1-2.69-5.62h3.48a4.85 4.85 0 0 0 1.72 3.49 6.28 6.28 0 0 0 4.18 1.29 6.18 6.18 0 0 0 4-1.25 4 4 0 0 0 1.54-3.31 3.32 3.32 0 0 0-1.14-2.61 8.4 8.4 0 0 0-3.61-1.61l-2.5-.63a12.18 12.18 0 0 1-5.53-2.66 6 6 0 0 1-1.72-4.52 6.77 6.77 0 0 1 4.19-6.44 11 11 0 0 1 4.59-.92 9.8 9.8 0 0 1 4.54 1 7.39 7.39 0 0 1 3 2.69 8.53 8.53 0 0 1 1.23 3.79h-3.51a5.1 5.1 0 0 0-1.64-3.23 5.28 5.28 0 0 0-3.66-1.25 5.9 5.9 0 0 0-3.8 1.16 3.72 3.72 0 0 0-1.43 3.06 3.35 3.35 0 0 0 1 2.58 7.34 7.34 0 0 0 3.4 1.5l2.62.63a11.87 11.87 0 0 1 5.68 2.7ZM315.27 478a6.25 6.25 0 0 1 1.73 4.6 7.26 7.26 0 0 1-1.14 4 7.46 7.46 0 0 1-3.21 2.71 11.45 11.45 0 0 1-4.8.95 9.53 9.53 0 0 1-6.54-2.15 8 8 0 0 1-2.69-5.62h3.48a4.87 4.87 0 0 0 1.71 3.49 6.3 6.3 0 0 0 4.19 1.29 6.18 6.18 0 0 0 4-1.25 4.06 4.06 0 0 0 1.53-3.31 3.34 3.34 0 0 0-1.13-2.61 8.45 8.45 0 0 0-3.61-1.61l-2.5-.63a12.18 12.18 0 0 1-5.53-2.66 6 6 0 0 1-1.72-4.52 6.79 6.79 0 0 1 4.18-6.44 11 11 0 0 1 4.6-.92 9.83 9.83 0 0 1 4.54 1 7.39 7.39 0 0 1 3 2.69 8.53 8.53 0 0 1 1.23 3.79h-3.49a5.15 5.15 0 0 0-1.64-3.23 5.3 5.3 0 0 0-3.67-1.25 5.87 5.87 0 0 0-3.79 1.16 3.73 3.73 0 0 0-1.44 3.06 3.35 3.35 0 0 0 1.05 2.58 7.34 7.34 0 0 0 3.4 1.5l2.61.63a12 12 0 0 1 5.65 2.75ZM346.57 489.93h-4l-9.41-23.32-9.42 23.32h-4l10.88-26.16h5Zm-5.23-9.57v2.92h-16.25v-2.92ZM363.31 476.59h12.63v.71a13.62 13.62 0 0 1-1.66 6.8 11.54 11.54 0 0 1-4.67 4.57 14.3 14.3 0 0 1-6.93 1.63 15.26 15.26 0 0 1-7.27-1.68 12 12 0 0 1-4.89-4.73 15.11 15.11 0 0 1 0-14.08 12 12 0 0 1 4.89-4.73 15.26 15.26 0 0 1 7.27-1.68 16.11 16.11 0 0 1 6.22 1.14 11.36 11.36 0 0 1 4.5 3.27 11.09 11.09 0 0 1 2.32 4.93h-3.55a8 8 0 0 0-3.31-4.63 10.68 10.68 0 0 0-6.18-1.72 11 11 0 0 0-5.46 1.31 9.13 9.13 0 0 0-3.66 3.68 12.08 12.08 0 0 0 0 10.94 9.13 9.13 0 0 0 3.66 3.68 11 11 0 0 0 5.46 1.31 11.31 11.31 0 0 0 5.17-1.12 8.13 8.13 0 0 0 3.42-3.14 8.94 8.94 0 0 0 1.2-4.67l.89 1.05h-10.05ZM396.86 463.77v3h-13.52l1.68-1.68v23.54l-1.68-1.68h13.52v3h-15.32v-26.18Zm0 11.4v3h-13.45v-3ZM431.57 463.77v3h-21.33v-3Zm-8.93 1.5v24.66h-3.47v-24.66ZM436.13 463.77h3.47v26.16h-3.47Zm2.88 11.4h17v3H439Zm16.43-11.4h3.48v26.16h-3.48ZM481.33 463.77v3h-13.52l1.68-1.68v23.54l-1.68-1.68h13.52v3H466v-26.18Zm0 11.4v3h-13.45v-3ZM501.64 475.52a5.05 5.05 0 0 0 0-7.36 6.14 6.14 0 0 0-4.2-1.4h-6.24v23.17h-3.48v-26.16h9.72a11.31 11.31 0 0 1 4.84 1 7.47 7.47 0 0 1 4.42 7 7 7 0 0 1-1.06 3.85 7.32 7.32 0 0 1-2.93 2.63 9.21 9.21 0 0 1-4.26.95h-.34l-.75.64h-6.76v-2.92h6.84a6.09 6.09 0 0 0 4.2-1.4Zm7.75 14.41h-4l-4.86-8.11a4 4 0 0 0-1.55-1.53 5.14 5.14 0 0 0-2.33-.45l1.3-1.91a8.81 8.81 0 0 1 3.5.53 5.17 5.17 0 0 1 2.11 2.09ZM537.45 489.93h-4l-9.41-23.32-9.42 23.32h-4l10.87-26.16h5Zm-5.23-9.57v2.92H516v-2.92ZM554.8 476.1a5.63 5.63 0 0 0 0-7.84 5.85 5.85 0 0 0-4.2-1.5h-5.49v23.17h-3.48v-26.16h9a10.73 10.73 0 0 1 4.86 1.05 7.81 7.81 0 0 1 3.25 2.95 9 9 0 0 1 0 8.82 7.81 7.81 0 0 1-3.25 3 10.73 10.73 0 0 1-4.86 1h-6.09v-3h6.09a5.85 5.85 0 0 0 4.17-1.49ZM575.71 477h-3.48l-9.67-13.27H567l7 10.28 7-10.28h4.4Zm0 0v12.89h-3.48V477Z"
    fill="currentColor"
  />
</svg>
