<svg
  width="128"
  height="128"
  viewBox="0 0 128 128"
  fill="none"
  xmlns="http://www.w3.org/2000/svg"
>
  <path
    d="M28.3064 94.2203L22.4315 93.6271C19.8895 93.3306 18.329 93.154 17.75 93.0764L18.8374 84.37C22.4226 86.9193 26.2952 89.038 30.3753 90.6827C33.8208 92.1617 37.5154 92.9739 41.2635 93.0764C44.5305 93.0764 47.1196 92.1702 49.0308 90.3579C50.942 88.5455 51.9047 85.6787 51.9188 81.7574C51.9329 79.5486 51.1622 77.4065 49.7439 75.7131C48.2208 73.8768 46.3966 72.3129 44.3492 71.0881C42.2074 69.7794 39.3241 68.2189 35.6994 66.4065C31.7028 64.3729 28.5629 62.6312 26.2798 61.1813C24.0452 59.7749 22.0579 58.0094 20.3979 55.9561C18.7811 53.961 17.9142 51.4627 17.9477 48.8949C17.8448 45.7599 18.7425 42.6734 20.5109 40.0827C22.1658 37.7234 24.4478 35.8743 27.0989 34.7444C29.8151 33.5772 32.7431 32.9835 35.6994 33.0004C39.8945 33.0229 43.938 34.5715 47.0748 37.3571C50.6417 40.4042 53.7249 43.9755 56.219 47.9487C58.8693 52.0866 62.0444 57.6743 65.7445 64.7119C69.082 71.0245 71.9324 76.0685 74.2955 79.8438C76.4431 83.374 79.1009 86.5672 82.1827 89.3199C85.0872 91.8619 88.2082 93.1305 91.5458 93.1258C94.8834 93.1211 97.2983 92.488 98.7905 91.2264C100.349 89.9554 101.128 87.7594 101.128 84.6383C101.127 82.0964 100.285 79.6261 98.734 77.6125C97.0962 75.4319 95.1087 73.5375 92.8521 72.006C90.5267 70.4102 87.4433 68.5272 83.602 66.3571C79.6054 64.041 76.4844 62.0828 74.239 60.4822C72.0407 58.9387 70.0947 57.0642 68.4701 54.9251C66.8995 52.9078 66.0538 50.4205 66.0693 47.864C66.0693 42.7141 68.2653 38.9482 72.6573 36.5662C77.0493 34.1843 82.6559 33.0074 89.4769 33.0356C95.6627 33.0101 101.821 33.8539 107.772 35.5424L104.192 44.164C101.594 41.5839 98.6442 39.3849 95.4294 37.6324C92.1457 35.6916 88.4117 34.6425 84.5977 34.5891C81.9776 34.5186 79.4152 35.3652 77.3529 36.9828C76.426 37.6566 75.6715 38.5401 75.1512 39.5611C74.6309 40.5821 74.3594 41.7117 74.359 42.8577C74.359 45.7669 75.6653 48.3018 78.2779 50.4837C82.0048 53.3955 85.9762 55.98 90.1477 58.2086C93.7214 60.1688 97.1907 62.3136 100.542 64.6342C103.145 66.4783 105.426 68.7401 107.292 71.3281C109.127 73.8393 110.102 76.8753 110.074 79.9851C110.074 84.9938 108.441 88.6961 105.174 91.0922C101.856 93.5035 97.8422 94.7655 93.7418 94.6863C89.3586 94.7133 85.1069 93.1902 81.7379 90.3861C78.0917 87.4205 74.9635 83.8698 72.4808 79.8791C69.8682 75.7413 66.7471 70.1889 63.1177 63.2219C59.8555 56.9046 57.031 51.8418 54.6444 48.0335C52.4778 44.4596 49.7639 41.2478 46.6018 38.5151C43.8097 36.0371 40.2091 34.6637 36.4761 34.6527C33.7928 34.6218 31.2071 35.6581 29.2879 37.5336C28.3508 38.3376 27.5945 39.3309 27.0688 40.4481C26.543 41.5653 26.2597 42.7812 26.2375 44.0157C26.2217 46.083 26.977 48.0819 28.3558 49.6222C29.8437 51.3167 31.5877 52.7676 33.5245 53.9225C35.5582 55.1605 38.425 56.721 42.125 58.604C46.2628 60.7082 49.558 62.5229 52.0106 64.0481C54.3946 65.5313 56.51 67.4079 58.2667 69.5981C60.0027 71.7536 60.9273 74.4499 60.8794 77.2171C60.8794 83.8075 58.7398 88.3807 54.4608 90.9369C50.1817 93.493 44.5564 94.764 37.5847 94.7499C34.4848 94.7341 31.3879 94.5573 28.3064 94.2203Z"
  />
  <style>
    path {
      fill: #103838;
      transition: fill 0.3s ease;
    }
    @media (prefers-color-scheme: dark) {
      path {
        fill: #f0e6d2;
        transition: fill 0.3s ease;
      }
    }
    svg {
      background-color: #f0e6d2;
      border-radius: 4px;
      border: 1px solid #e0d4b8;
    }
    @media (prefers-color-scheme: dark) {
      svg {
        background-color: #103838;
        border: 1px solid #205151;
      }
    }
  </style>
</svg>
